<svg xmlns="http://www.w3.org/2000/svg" width="225.346" height="160.834" viewBox="0 0 225.346 160.834">
  <g id="TrashCan" transform="translate(1555.582 -340.04)">
    <g id="TrashCan-2" data-name="TrashCan" transform="translate(-1492.648 375.874)">
      <g id="Rectangle_26" data-name="Rectangle 26" transform="translate(30.24)" fill="#dbdbdb" stroke="#000" stroke-width="5">
        <rect width="34.235" height="56.487" rx="10" stroke="none"/>
        <rect x="2.5" y="2.5" width="29.235" height="51.487" rx="7.5" fill="none"/>
      </g>
      <g id="Path_35" data-name="Path 35" transform="translate(63.06 8.858) rotate(20)" fill="#fff">
        <path d="M 30.81125259399414 53.98729705810547 L 3.423472881317139 53.98729705810547 C 2.914273023605347 53.98729705810547 2.500002861022949 53.57302856445312 2.500002861022949 53.06382751464844 L 2.500002861022949 3.423478603363037 C 2.500002861022949 2.914268493652344 2.914273023605347 2.499998569488525 3.423472881317139 2.499998569488525 L 30.81125259399414 2.499998569488525 C 31.32045364379883 2.499998569488525 31.73472213745117 2.914268493652344 31.73472213745117 3.423478603363037 L 31.73472213745117 53.06382751464844 C 31.73472213745117 53.57302856445312 31.32045364379883 53.98729705810547 30.81125259399414 53.98729705810547 Z" stroke="none"/>
        <path d="M 4.999998092651367 5 L 4.999998092651367 51.48729705810547 L 29.23472785949707 51.48729705810547 L 29.23472785949707 5 L 4.999998092651367 5 M 3.423469543457031 0 L 30.81125640869141 0 C 32.70198822021484 0 34.23472595214844 1.532741546630859 34.23472595214844 3.423473358154297 L 34.23472595214844 53.06382369995117 C 34.23472595214844 54.95455551147461 32.70198822021484 56.48729705810547 30.81125640869141 56.48729705810547 L 3.423469543457031 56.48729705810547 C 1.532737731933594 56.48729705810547 0 54.95455551147461 0 53.06382369995117 L 0 3.423473358154297 C 0 1.532741546630859 1.532737731933594 0 3.423469543457031 0 Z" stroke="none" fill="#000"/>
      </g>
      <g id="Rectangle_24" data-name="Rectangle 24" transform="translate(4.916 17.35) rotate(-19)" fill="#ffbc80" stroke="#000" stroke-width="5">
        <rect width="43.548" height="71.854" rx="10" stroke="none"/>
        <rect x="2.5" y="2.5" width="38.548" height="66.854" rx="7.5" fill="none"/>
      </g>
      <g id="Path_36" data-name="Path 36" transform="translate(0 22.496)" fill="#f76e11">
        <path d="M 88.10707855224609 100.0036544799805 L 11.5172643661499 100.0036544799805 C 6.545125961303711 100.0036544799805 2.50000262260437 95.95853424072266 2.50000262260437 90.98639678955078 L 2.50000262260437 11.51727294921875 C 2.50000262260437 6.545135021209717 6.545125961303711 2.499996423721313 11.5172643661499 2.499996423721313 L 88.10707855224609 2.499996423721313 C 93.07921600341797 2.499996423721313 97.12434387207031 6.545135021209717 97.12434387207031 11.51727294921875 L 97.12434387207031 90.98639678955078 C 97.12434387207031 95.95853424072266 93.07921600341797 100.0036544799805 88.10707855224609 100.0036544799805 Z" stroke="none"/>
        <path d="M 11.51726531982422 4.999992370605469 C 7.923629760742188 4.999992370605469 4.999992370605469 7.923629760742188 4.999992370605469 11.51726531982422 L 4.999992370605469 90.98638916015625 C 4.999992370605469 94.58000946044922 7.923629760742188 97.50364685058594 11.51726531982422 97.50364685058594 L 88.10707855224609 97.50364685058594 C 91.70069885253906 97.50364685058594 94.62433624267578 94.58000946044922 94.62433624267578 90.98638916015625 L 94.62433624267578 11.51726531982422 C 94.62433624267578 7.923629760742188 91.70069885253906 4.999992370605469 88.10707855224609 4.999992370605469 L 11.51726531982422 4.999992370605469 M 11.51726531982422 -7.62939453125e-06 L 88.10707855224609 -7.62939453125e-06 C 94.46788024902344 -7.62939453125e-06 99.62433624267578 5.156448364257812 99.62433624267578 11.51726531982422 L 99.62433624267578 90.98638916015625 C 99.62433624267578 97.34720611572266 94.46788024902344 102.5036468505859 88.10707855224609 102.5036468505859 L 11.51726531982422 102.5036468505859 C 5.156448364257812 102.5036468505859 -7.62939453125e-06 97.34720611572266 -7.62939453125e-06 90.98638916015625 L -7.62939453125e-06 11.51726531982422 C -7.62939453125e-06 5.156448364257812 5.156448364257812 -7.62939453125e-06 11.51726531982422 -7.62939453125e-06 Z" stroke="none" fill="#000"/>
      </g>
      <rect id="Rectangle_21" data-name="Rectangle 21" width="5" height="51" rx="2.5" transform="translate(22.648 48)"/>
      <rect id="Rectangle_22" data-name="Rectangle 22" width="5" height="51" rx="2.5" transform="translate(47.648 48)"/>
      <rect id="Rectangle_23" data-name="Rectangle 23" width="5" height="51" rx="2.5" transform="translate(72.648 48)"/>
    </g>
    <g id="Group_1" data-name="Group 1" transform="translate(-1564.13 485.382) rotate(-70)">
      <g id="Rectangle_20" data-name="Rectangle 20" transform="translate(24.991 0)" fill="#f76e11" stroke="#000" stroke-width="5">
        <rect width="49.64" height="26.703" rx="13.352" stroke="none"/>
        <rect x="2.5" y="2.5" width="44.64" height="21.703" rx="10.852" fill="none"/>
      </g>
      <g id="Rectangle_19" data-name="Rectangle 19" transform="translate(0 13.352)" fill="#f76e11" stroke="#000" stroke-width="5">
        <rect width="99.281" height="26.703" rx="13.352" stroke="none"/>
        <rect x="2.5" y="2.5" width="94.281" height="21.703" rx="10.852" fill="none"/>
      </g>
    </g>
    <g id="Group_2" data-name="Group 2" transform="translate(-16.06 -1259.044) rotate(-20)">
      <g id="Rectangle_27" data-name="Rectangle 27" transform="translate(-1861 1028)" fill="#f76e11" stroke="#000" stroke-width="2">
        <rect width="10" height="128" rx="5" stroke="none"/>
        <rect x="1" y="1" width="8" height="126" rx="4" fill="none"/>
      </g>
      <g id="Path_38" data-name="Path 38" transform="translate(-1881 1134)" fill="#f76e11">
        <path d="M 25 49 C 21.75958061218262 49 18.61661911010742 48.36558151245117 15.65841960906982 47.1143684387207 C 12.80064010620117 45.9056282043457 10.23388004302979 44.17499923706055 8.029439926147461 41.97055816650391 C 5.824999809265137 39.76612091064453 4.094369888305664 37.19935989379883 2.885629892349243 34.34157943725586 C 1.634420037269592 31.38338088989258 1 28.24041938781738 1 25 C 1 21.75958061218262 1.634420037269592 18.61661911010742 2.885629892349243 15.65841960906982 C 4.094369888305664 12.80064010620117 5.824999809265137 10.23388004302979 8.029439926147461 8.029439926147461 C 10.23388004302979 5.824999809265137 12.80064010620117 4.094369888305664 15.65841960906982 2.885629892349243 C 18.61661911010742 1.634420037269592 21.75958061218262 1 25 1 C 28.24041938781738 1 31.38338088989258 1.634420037269592 34.34157943725586 2.885629892349243 C 37.19935989379883 4.094369888305664 39.76612091064453 5.824999809265137 41.97055816650391 8.029439926147461 C 44.17499923706055 10.23388004302979 45.9056282043457 12.80064010620117 47.1143684387207 15.65841960906982 C 48.36558151245117 18.61661911010742 49 21.75958061218262 49 25 C 49 28.24041938781738 48.36558151245117 31.38338088989258 47.1143684387207 34.34157943725586 C 45.9056282043457 37.19935989379883 44.17499923706055 39.76612091064453 41.97055816650391 41.97055816650391 C 39.76612091064453 44.17499923706055 37.19935989379883 45.9056282043457 34.34157943725586 47.1143684387207 C 31.38338088989258 48.36558151245117 28.24041938781738 49 25 49 Z" stroke="none"/>
        <path d="M 25 2 C 21.89414024353027 2 18.88224029541016 2.607841491699219 16.04798126220703 3.806629180908203 C 13.30939102172852 4.964958190917969 10.84946823120117 6.623619079589844 8.736541748046875 8.736541748046875 C 6.623619079589844 10.84946823120117 4.964958190917969 13.30939102172852 3.806629180908203 16.04798126220703 C 2.607841491699219 18.88224029541016 2 21.89414024353027 2 25 C 2 28.10585975646973 2.607841491699219 31.11775970458984 3.806629180908203 33.95201873779297 C 4.964958190917969 36.69060897827148 6.623619079589844 39.15052795410156 8.736541748046875 41.26345825195312 C 10.84946823120117 43.37638092041016 13.30939102172852 45.03504180908203 16.04798126220703 46.1933708190918 C 18.88224029541016 47.39215850830078 21.89414024353027 48 25 48 C 28.10585975646973 48 31.11775970458984 47.39215850830078 33.95201873779297 46.1933708190918 C 36.69060897827148 45.03504180908203 39.15052795410156 43.37638092041016 41.26345825195312 41.26345825195312 C 43.37638092041016 39.15052795410156 45.03504180908203 36.69060897827148 46.1933708190918 33.95201873779297 C 47.39215850830078 31.11775970458984 48 28.10585975646973 48 25 C 48 21.89414024353027 47.39215850830078 18.88224029541016 46.1933708190918 16.04798126220703 C 45.03504180908203 13.30939102172852 43.37638092041016 10.84946823120117 41.26345825195312 8.736541748046875 C 39.15052795410156 6.623619079589844 36.69060897827148 4.964958190917969 33.95201873779297 3.806629180908203 C 31.11775970458984 2.607841491699219 28.10585975646973 2 25 2 M 25 0 C 38.80712127685547 0 50 11.19287872314453 50 25 C 50 38.80712127685547 38.80712127685547 50 25 50 C 11.19287872314453 50 0 38.80712127685547 0 25 C 0 11.19287872314453 11.19287872314453 0 25 0 Z" stroke="none" fill="#000"/>
      </g>
      <g id="Rectangle_29" data-name="Rectangle 29" transform="translate(-1881 1158.237)" fill="#ffbc80" stroke="#000" stroke-width="2">
        <rect width="50" height="30" stroke="none"/>
        <rect x="1" y="1" width="48" height="28" fill="none"/>
      </g>
      <g id="Group_3" data-name="Group 3" transform="translate(27.738 4.237)">
        <rect id="Rectangle_30" data-name="Rectangle 30" width="2" height="30" transform="translate(-1902.238 1154)"/>
        <rect id="Rectangle_31" data-name="Rectangle 31" width="2" height="30" transform="translate(-1895.238 1154)"/>
        <rect id="Rectangle_32" data-name="Rectangle 32" width="2" height="30" transform="translate(-1888.238 1154)"/>
        <rect id="Rectangle_33" data-name="Rectangle 33" width="2" height="30" transform="translate(-1881.238 1154)"/>
        <rect id="Rectangle_34" data-name="Rectangle 34" width="2" height="30" transform="translate(-1874.238 1154)"/>
        <rect id="Rectangle_35" data-name="Rectangle 35" width="2" height="30" transform="translate(-1867.238 1154)"/>
      </g>
    </g>
  </g>
</svg>
