<svg xmlns="http://www.w3.org/2000/svg" width="498" height="770" viewBox="0 0 498 770">
  <g id="To-Do_list" data-name="To-Do list" transform="translate(1199 1912)">
    <rect id="Rectangle_36" data-name="Rectangle 36" width="498" height="709" rx="50" transform="translate(-1199 -1851)" fill="#c4a484"/>
    <rect id="Rectangle_37" data-name="Rectangle 37" width="404" height="641" transform="translate(-1151 -1829)" fill="#fff"/>
    <path id="Rectangle_38" data-name="Rectangle 38" d="M20,0H244a20,20,0,0,1,20,20V79a0,0,0,0,1,0,0H0a0,0,0,0,1,0,0V20A20,20,0,0,1,20,0Z" transform="translate(-1082 -1878)" fill="silver"/>
    <rect id="Rectangle_39" data-name="Rectangle 39" width="264" height="20" transform="translate(-1082 -1819)" fill="#9b9999"/>
    <path id="done_FILL0_wght400_GRAD0_opsz48" d="M38.842,80.135,7.7,47.758l5.978-6.215L38.842,67.7,92.23,12.2l5.978,6.215Z" transform="translate(-1126.7 -1754.635)" fill="#ce0dfc"/>
    <g id="Ellipse_7" data-name="Ellipse 7" transform="translate(-985 -1912)" fill="none" stroke="silver" stroke-width="15">
      <ellipse cx="35.5" cy="34.5" rx="35.5" ry="34.5" stroke="none"/>
      <ellipse cx="35.5" cy="34.5" rx="28" ry="27" fill="none"/>
    </g>
    <path id="done_FILL0_wght400_GRAD0_opsz48-2" data-name="done_FILL0_wght400_GRAD0_opsz48" d="M38.842,80.135,7.7,47.758l5.978-6.215L38.842,67.7,92.23,12.2l5.978,6.215Z" transform="translate(-1126.7 -1654.635)" fill="#ce0dfc"/>
    <path id="done_FILL0_wght400_GRAD0_opsz48-3" data-name="done_FILL0_wght400_GRAD0_opsz48" d="M38.842,80.135,7.7,47.758l5.978-6.215L38.842,67.7,92.23,12.2l5.978,6.215Z" transform="translate(-1126.7 -1554.635)" fill="#ce0dfc"/>
    <rect id="Rectangle_40" data-name="Rectangle 40" width="159.768" height="9" transform="translate(-977.768 -1712.968)" fill="#dbdbdb"/>
    <rect id="Rectangle_41" data-name="Rectangle 41" width="159.768" height="9" transform="translate(-977.768 -1612.968)" fill="#dbdbdb"/>
    <rect id="Rectangle_42" data-name="Rectangle 42" width="159.768" height="9" transform="translate(-977.768 -1517.468)" fill="#dbdbdb"/>
    <path id="done_FILL0_wght400_GRAD0_opsz48-4" data-name="done_FILL0_wght400_GRAD0_opsz48" d="M38.842,80.135,7.7,47.758l5.978-6.215L38.842,67.7,92.23,12.2l5.978,6.215Z" transform="translate(-1126.7 -1454.635)" fill="#ce0dfc"/>
    <path id="done_FILL0_wght400_GRAD0_opsz48-5" data-name="done_FILL0_wght400_GRAD0_opsz48" d="M38.842,80.135,7.7,47.758l5.978-6.215L38.842,67.7,92.23,12.2l5.978,6.215Z" transform="translate(-1126.7 -1354.635)" fill="#ce0dfc"/>
    <rect id="Rectangle_43" data-name="Rectangle 43" width="159.768" height="9" transform="translate(-977.768 -1412.968)" fill="#dbdbdb"/>
    <rect id="Rectangle_44" data-name="Rectangle 44" width="159.768" height="9" transform="translate(-977.768 -1317.468)" fill="#dbdbdb"/>
  </g>
</svg>
